# xmcd
#
# Track frame offsets:
#	150
#	49205
#	71855
#	98032
#	125980
#	158867
#	180812
#	207922
#
# Disc length: 3561 seconds
#
# Revision: 2
# Processed by: cddbd v1.5.2PL0 Copyright (c) Steve Scherf et al.
# Submitted via: audiograbber 1.83.01
#
DISCID=700de708
DTITLE=B.B. King - Live in Europe
DYEAR=2005
DGENRE=Blues
TTITLE0=B.B.'s Theme [Live] 
TTITLE1=The Thrill Is Gone [Live] 
TTITLE2=Guess Who [Live] 
TTITLE3=Paying the Cost to Be the Boss [Live]
TTITLE4=All Over Again [Live]
TTITLE5=Everyday I Have the Blues [Live]
TTITLE6=Sweet Little Angel [Live]
TTITLE7=Jam [Live] - Dave Brubeck
EXTD=YEAR: 1983
EXTT0=
EXTT1=
EXTT2=
EXTT3=
EXTT4=
EXTT5=
EXTT6=
EXTT7=Recorderd January 28, 1983\nPalais des Festivals - cannes - France
PLAYORDER=
